HIERARCHY
ROOT Hips
{
	OFFSET 0.000000 0.000000 0.000000
	CHANNELS 6 Xposition Yposition Zposition Zrotation Yrotation Xrotation 
	JOINT LHipJoint
	{
		OFFSET 0.000000 0.000000 0.000000
		CHANNELS 3 Zrotation Yrotation Xrotation
		JOINT LeftUpLeg
		{
			OFFSET 1.363060 -1.794630 0.839290
			CHANNELS 3 Zrotation Yrotation Xrotation
			JOINT LeftLeg
			{
				OFFSET 2.448110 -6.726130 0.000000
				CHANNELS 3 Zrotation Yrotation Xrotation
				JOINT LeftFoot
				{
					OFFSET 2.562200 -7.039590 0.000000
					CHANNELS 3 Zrotation Yrotation Xrotation
					JOINT LeftToeBase
					{
						OFFSET 0.157640 -0.433110 2.322550
						CHANNELS 3 Zrotation Yrotation Xrotation
						End Site
						{
							OFFSET 0.000000 0.000000 0.000000
						}
					}
				}
			}
		}
	}
	JOINT RHipJoint
	{
		OFFSET 0.000000 0.000000 0.000000
		CHANNELS 3 Zrotation Yrotation Xrotation
		JOINT RightUpLeg
		{
			OFFSET -1.305520 -1.794630 0.839290
			CHANNELS 3 Zrotation Yrotation Xrotation
			JOINT RightLeg
			{
				OFFSET -2.542530 -6.985550 0.000000
				CHANNELS 3 Zrotation Yrotation Xrotation
				JOINT RightFoot
				{
					OFFSET -2.568260 -7.056230 0.000000
					CHANNELS 3 Zrotation Yrotation Xrotation
					JOINT RightToeBase
					{
						OFFSET -0.164730 -0.452590 2.363150
						CHANNELS 3 Zrotation Yrotation Xrotation
						End Site
						{
							OFFSET 0.000000 0.000000 0.000000
						}
					}
				}
			}
		}
	}
	JOINT LowerBack
	{
		OFFSET 0.000000 0.000000 0.000000
		CHANNELS 3 Zrotation Yrotation Xrotation
		JOINT Spine
		{
			OFFSET 0.028270 2.035590 -0.193380
			CHANNELS 3 Zrotation Yrotation Xrotation
			JOINT Spine1
			{
				OFFSET 0.056720 2.048850 -0.042750
				CHANNELS 3 Zrotation Yrotation Xrotation
				JOINT Neck
				{
					OFFSET 0.000000 0.000000 0.000000
					CHANNELS 3 Zrotation Yrotation Xrotation
					JOINT Neck1
					{
						OFFSET -0.054170 1.746240 0.172020
						CHANNELS 3 Zrotation Yrotation Xrotation
						JOINT Head
						{
							OFFSET 0.104070 1.761360 -0.123970
							CHANNELS 3 Zrotation Yrotation Xrotation
							End Site
							{
								OFFSET 0.000000 0.000000 0.000000
							}
						}
					}
				}
				JOINT LeftShoulder
				{
					OFFSET 0.000000 0.000000 0.000000
					CHANNELS 3 Zrotation Yrotation Xrotation
					JOINT LeftArm
					{
						OFFSET 3.362410 1.200890 -0.311210
						CHANNELS 3 Zrotation Yrotation Xrotation
						JOINT LeftForeArm
						{
							OFFSET 4.983000 -0.000000 -0.000000
							CHANNELS 3 Zrotation Yrotation Xrotation
							JOINT LeftHand
							{
								OFFSET 3.483560 -0.000000 -0.000000
								CHANNELS 3 Zrotation Yrotation Xrotation
								JOINT LeftFingerBase
								{
									OFFSET 0.000000 0.000000 0.000000
									CHANNELS 3 Zrotation Yrotation Xrotation
									JOINT LeftHandIndex1
									{
										OFFSET 0.715260 -0.000000 -0.000000
										CHANNELS 3 Zrotation Yrotation Xrotation
										End Site
										{
											OFFSET 0.000000 0.000000 0.000000
										}
									}
								}
								JOINT LThumb
								{
									OFFSET 0.000000 0.000000 0.000000
									CHANNELS 3 Zrotation Yrotation Xrotation
									End Site
									{
										OFFSET 0.000000 0.000000 0.000000
									}
								}
							}
						}
					}
				}
				JOINT RightShoulder
				{
					OFFSET 0.000000 0.000000 0.000000
					CHANNELS 3 Zrotation Yrotation Xrotation
					JOINT RightArm
					{
						OFFSET -3.136600 1.374050 -0.404650
						CHANNELS 3 Zrotation Yrotation Xrotation
						JOINT RightForeArm
						{
							OFFSET -5.241900 -0.000000 -0.000000
							CHANNELS 3 Zrotation Yrotation Xrotation
							JOINT RightHand
							{
								OFFSET -3.444170 -0.000000 -0.000000
								CHANNELS 3 Zrotation Yrotation Xrotation
								JOINT RightFingerBase
								{
									OFFSET 0.000000 0.000000 0.000000
									CHANNELS 3 Zrotation Yrotation Xrotation
									JOINT RightHandIndex1
									{
										OFFSET -0.622530 -0.000000 -0.000000
										CHANNELS 3 Zrotation Yrotation Xrotation
										End Site
										{
											OFFSET 0.000000 0.000000 0.000000
										}
									}
								}
								JOINT RThumb
								{
									OFFSET 0.000000 0.000000 0.000000
									CHANNELS 3 Zrotation Yrotation Xrotation
									End Site
									{
										OFFSET 0.000000 0.000000 0.000000
									}
								}
							}
						}
					}
				}
			}
		}
	}
}
MOTION
Frames: 7
Frame Time: 0.008333
0.403018 18.420589 0.112064 -57.811809 87.946572 -27.426336 1.408327 -0.151277 -7.821208 -12.156614 -24.164056 -6.127736 -2.126937 0.736102 -0.090055 -8.606501 29.844675 -7.675928 0.116700 -2.202100 -6.064600 -0.846262 1.272674 -8.105829 14.259771 16.584661 -14.944229 1.370031 -4.616667 9.579278 6.087428 -22.691072 -4.532416 -0.615000 5.019200 -13.963200 -4.639830 -0.521121 11.738896 5.334156 3.838935 -61.838226 -0.050939 1.001624 4.288188 -9.570920 -2.545618 -8.270144 9.944582 -4.004503 20.957737 3.996900 -1.325600 7.584700 0.711994 1.700528 3.110710 -91.113556 23.075098 -6.039074 15.090424 -23.407409 -2.829747 1.104953 -1.602500 -2.601353 21.492992 7.916208 3.619500 -7.125000 0.000000 0.000000 -5.718800 40.307700 0.664100 -0.679405 0.167247 4.342101 87.055016 -20.140966 -27.578511 -12.120103 14.802941 -1.569973 -1.074640 0.840470 14.896324 -33.803584 29.033727 -17.118900 7.125000 0.000000 0.000000 -1.052900 3.192700 -1.110100 
0.405187 18.421828 0.110412 -58.600578 87.992607 -28.209504 1.395128 -0.156339 -7.825973 -12.150931 -24.218907 -6.131313 -2.127027 0.735151 -0.092161 -8.603709 29.835402 -7.684308 0.111300 -2.151500 -5.924500 -0.860911 1.270456 -8.103712 14.267630 16.480549 -14.973637 1.369124 -4.620352 9.586325 6.073475 -22.654084 -4.489701 -0.626200 5.063800 -14.090700 -4.550392 -0.536263 11.674296 5.268032 3.784742 -61.837677 -0.063859 0.978295 4.348027 -9.594720 -2.539943 -8.330352 9.985287 -4.001990 21.101206 4.010800 -1.317000 7.632900 0.716450 1.682465 3.114465 -91.029843 22.933362 -5.721335 15.181827 -23.535773 -2.868687 1.119007 -1.596851 -3.116593 21.552305 8.104338 3.702700 -7.125000 0.000000 0.000000 -5.695000 40.518800 0.631600 -0.662911 0.171315 4.354997 87.026381 -20.225490 -26.801870 -12.344356 15.093437 -1.612453 -1.065267 0.838648 15.151487 -33.272298 28.749544 -16.648300 7.125000 0.000000 0.000000 -0.809800 2.727500 -0.847500 
0.405910 18.422448 0.109276 -59.989257 87.994123 -29.630344 1.391319 -0.149234 -7.822873 -12.125999 -24.255738 -6.092791 -2.127442 0.736772 -0.092037 -8.604055 29.833242 -7.711403 0.111300 -2.151300 -5.923900 -0.864190 1.271099 -8.104903 14.309646 16.478176 -14.921785 1.370070 -4.615443 9.582664 6.074806 -22.655481 -4.532676 -0.613700 5.013600 -13.947500 -4.504043 -0.533130 11.677304 5.291514 3.798469 -61.819572 -0.096651 0.978477 4.378408 -9.506334 -2.532466 -8.357077 9.881367 -3.987872 21.160962 3.971400 -1.313000 7.644200 0.711189 1.678798 3.114510 -90.959143 22.838625 -5.280843 15.322301 -23.743662 -2.933583 1.133724 -1.595961 -3.638008 21.693543 8.208119 3.773700 -7.125000 0.000000 0.000000 -5.588000 40.654600 0.600900 -0.666427 0.173039 4.374600 86.983711 -20.424996 -25.186421 -12.607899 15.391571 -1.663978 -1.068377 0.830819 14.356067 -32.892974 28.729728 -16.402900 7.125000 0.000000 0.000000 -0.602300 2.583600 -0.628900 
0.407976 18.423377 0.108449 -60.667408 88.009477 -30.308870 1.378303 -0.161534 -7.826096 -12.111866 -24.270249 -6.072338 -2.128763 0.735614 -0.088375 -8.595691 29.800493 -7.788285 0.102900 -2.068200 -5.694100 -0.880041 1.259983 -8.104788 14.352210 16.410919 -14.936648 1.368389 -4.619969 9.587389 6.080668 -22.687157 -4.464282 -0.640300 5.119200 -14.248800 -4.343416 -0.520654 11.609683 5.102691 3.712803 -61.833642 -0.096530 0.976097 4.453598 -9.383491 -2.517182 -8.371780 9.814627 -3.976613 21.252988 3.938400 -1.304400 7.667300 0.737842 1.659384 3.121570 -90.869694 22.791033 -4.906362 15.492492 -24.006269 -3.022546 1.145757 -1.597350 -4.083792 21.716462 8.155140 3.762900 -7.125000 0.000000 0.000000 -5.560600 40.612200 0.603800 -0.640838 0.164367 4.388729 87.023799 -20.615930 -24.014542 -12.841694 15.672960 -1.715277 -1.064608 0.830099 13.752425 -32.252744 28.928901 -16.108500 7.125000 0.000000 0.000000 -0.205200 2.601800 -0.214300 
0.409629 18.423481 0.110825 -60.233102 88.012022 -29.886287 1.380807 -0.153370 -7.826496 -12.140477 -24.261531 -6.061839 -2.125719 0.737887 -0.096016 -8.641523 29.949602 -7.630241 0.126500 -2.292800 -6.315600 -0.871123 1.262366 -8.105846 14.352057 16.404669 -14.926068 1.365328 -4.618021 9.572056 6.118648 -22.821217 -4.322064 -0.699000 5.344200 -14.892900 -4.395914 -0.521672 11.576646 5.133551 3.734950 -61.816755 -0.078499 0.979034 4.491811 -9.357404 -2.508705 -8.428789 9.791772 -3.966366 21.363576 3.931200 -1.296300 7.701900 0.734661 1.654736 3.122841 -90.808775 22.738582 -4.573341 15.642245 -24.235709 -3.104422 1.153188 -1.601562 -4.565519 21.726781 7.957620 3.697700 -7.125000 0.000000 0.000000 -5.518200 40.417900 0.625600 -0.643146 0.160473 4.402949 87.050924 -20.793382 -22.895368 -13.078805 15.967895 -1.770590 -1.062004 0.833281 13.365495 -31.890386 29.083847 -15.959900 7.125000 0.000000 0.000000 0.026300 2.653700 0.027500 
0.412727 18.422654 0.113923 -60.649022 88.003352 -30.325866 1.386441 -0.142579 -7.818805 -12.128679 -24.268142 -6.032113 -2.126257 0.739080 -0.094385 -8.634443 29.926726 -7.655985 0.120800 -2.240300 -6.170400 -0.863291 1.262900 -8.110698 14.353388 16.595909 -14.841131 1.362855 -4.630557 9.614937 6.172275 -22.972179 -4.459543 -0.718700 5.417600 -15.103500 -4.433974 -0.538211 11.543355 5.220970 3.768797 -61.803500 -0.081468 0.972806 4.504119 -9.311663 -2.498800 -8.469591 9.712491 -3.949638 21.511065 3.907800 -1.288700 7.744300 0.725092 1.658534 3.119099 -90.744972 22.725910 -4.314144 15.759734 -24.417291 -3.166829 1.162689 -1.602065 -4.911097 21.733242 7.963776 3.704400 -7.125000 0.000000 0.000000 -5.513800 40.433500 0.623000 -0.658754 0.153092 4.421133 87.096995 -21.026547 -21.280021 -13.390659 16.339716 -1.846756 -1.073862 0.832008 12.606393 -32.151368 29.178350 -16.156500 7.125000 0.000000 0.000000 -0.105500 2.815100 -0.110500 
0.415516 18.421002 0.115679 -61.442953 87.905674 -31.114678 1.421200 -0.105839 -7.799219 -12.061100 -24.252001 -6.055463 -2.126300 0.743790 -0.095672 -8.632407 29.918838 -7.672398 0.115600 -2.192500 -6.038000 -0.826196 1.295340 -8.117161 14.405561 16.701763 -14.816796 1.359616 -4.638938 9.658146 6.202264 -23.050458 -4.563960 -0.715200 5.404400 -15.065700 -4.673835 -0.598454 11.447850 5.949056 4.094525 -61.715880 -0.261782 0.975689 4.498622 -9.461539 -2.444135 -8.530284 9.630872 -3.832090 21.691128 3.910600 -1.239800 7.795700 0.636414 1.722311 3.095626 -90.865351 22.781846 -4.202438 15.866083 -24.569168 -3.212001 1.171762 -1.605372 -5.201793 21.953838 8.077984 3.795700 -7.125000 0.000000 0.000000 -5.339000 40.588900 0.582600 -0.766305 0.187114 4.448642 86.911647 -21.225255 -19.312839 -13.693383 16.696941 -1.919772 -1.083007 0.832243 11.762136 -32.258678 29.289494 -16.267300 7.125000 0.000000 0.000000 -0.148800 2.946000 -0.156300 
